# AST/ASF file generated using VICON BodyLanguage
# -----------------------------------------------
:version 1.10
:name VICON
:units
  mass 1.0
  length 0.45
  angle deg
:documentation
   .ast/.asf automatically generated from VICON data using
   VICON BodyBuilder and BodyLanguage model FoxedUp or BRILLIANT.MOD
:root
   order TX TY TZ RX RY RZ
   axis XYZ
   position 0 0 0  
   orientation 0 0 0 
:bonedata
  begin
     id 1 
     name lhipjoint
     direction 0.602128 -0.715006 0.355257 
     length 2.21237 
     axis 0 0 0  XYZ
  end
  begin
     id 2 
     name lfemur
     direction 0.34202 -0.939693 0  
     length 6.71649  
     axis 0 0 20  XYZ
    dof rx ry rz
    limits (-160.0 20.0)
           (-70.0 70.0)
           (-60.0 70.0)
  end
  begin
     id 3 
     name ltibia
     direction 0.34202 -0.939693 0   
     length 6.97123   
     axis 0 0 20   XYZ
    dof rx
    limits (-10.0 170.0)
  end
  begin
     id 4 
     name lfoot
     direction 0.0655697 -0.180151 0.981451   
     length 1.80924   
     axis -90 7.62852e-016 20   XYZ
    dof rx rz
    limits (-45.0 90.0)
           (-70.0 20.0)
  end
  begin
     id 5 
     name ltoes
     direction 1.53545e-011 -4.21827e-011 1   
     length 0.916331   
     axis -90 7.62852e-016 20   XYZ
    dof rx
    limits (-90.0 20.0)
  end
  begin
     id 6 
     name rhipjoint
     direction -0.625414 -0.698792 0.347201   
     length 2.2637  
     axis 0 0 0  XYZ 
  end
  begin
     id 7 
     name rfemur
     direction -0.34202 -0.939693 0   
     length 7.07595   
     axis 0 0 -20   XYZ
    dof rx ry rz
    limits (-160.0 20.0)
           (-70.0 70.0)
           (-70.0 60.0)
  end
  begin
     id 8 
     name rtibia
     direction -0.34202 -0.939693 0   
     length 7.22924   
     axis 0 0 -20   XYZ
    dof rx
    limits (-10.0 170.0)
 end
 begin
     id 9 
     name rfoot
     direction -0.0766747 -0.210662 0.974547   
     length 1.98482  
     axis -90 -7.62852e-016 -20   XYZ
    dof rx rz
    limits (-45.0 90.0)
           (-20.0 70.0)
  end
  begin
     id 10 
     name rtoes
     direction -1.53532e-011 -4.21867e-011 1   
     length 0.999842   
     axis -90 -7.62852e-016 -20   XYZ
    dof rx
    limits (-90.0 20.0)
  end
  begin
     id 11 
     name lowerback
     direction -0.0224668 0.997354 -0.0691422   
     length 2.09945   
     axis 0 0 0   XYZ
    dof rx ry rz
    limits (-20.0 45.0)
           (-30.0 30.0)
           (-30.0 30.0)
  end
  begin
     id 12 
     name upperback
     direction 0.0134698 0.998451 -0.0539888   
     length 2.09758   
     axis 0 0 0   XYZ
    dof rx ry rz
    limits (-20.0 45.0)
           (-30.0 30.0)
           (-30.0 30.0)
  end
  begin
     id 13 
     name thorax
     direction 0.0241905 0.99948 -0.0213333   
     length 2.10428   
     axis 0 0 0   XYZ
    dof rx ry rz
    limits (-20.0 45.0)
           (-30.0 30.0)
           (-30.0 30.0)
  end
  begin
     id 14 
     name lowerneck
     direction -0.00866847 0.995978 0.0891737   
     length 1.3959   
     axis 0 0 0   XYZ
    dof rx ry rz
    limits (-20.0 45.0)
           (-30.0 30.0)
           (-30.0 30.0)
  end
  begin
     id 15 
     name upperneck
     direction 0.0680679 0.992203 0.104404   
     length 1.39452   
     axis 0 0 0   XYZ
    dof rx ry rz
    limits (-20.0 45.0)
           (-30.0 30.0)
           (-30.0 30.0)
  end
  begin
     id 16
     name head
     direction 0.0242216 0.999358 0.0264054  
     length 1.40433  
     axis 0 0 0   XYZ
    dof rx ry rz
    limits (-20.0 45.0)
           (-30.0 30.0)
           (-30.0 30.0)
  end
  begin
     id 17 
     name lclavicle
     direction 0.929368 0.362991 -0.0671771  
     length 3.04887  
     axis 0 0 0   XYZ
    dof ry rz
    limits (-20.0 10.0)
           (0.0 20.0)
  end
  begin
     id 18 
     name lhumerus
     direction 1 -4.48967e-011 -7.13741e-028   
     length 4.77195   
     axis -180 -30 -90   XYZ
    dof rx ry rz
    limits (-60.0 90.0)
           (-90.0 90.0)
           (-90.0 90.0)
  end
  begin
     id 19
     name lradius
     direction 1 -4.48977e-011 3.60404e-027   
     length 2.98444   
     axis -180 -30 -90   XYZ
    dof rx
    limits (-10.0 170.0)
  end
  begin
     id 20
     name lwrist
     direction 1 -4.48997e-011 7.54877e-027   
     length 1.49222   
     axis -7.18178e-015 90 90   XYZ
    dof ry
    limits (-180.0 0.0)
 end
  begin
     id 21 
     name lhand
     direction 1 -4.489e-011 1.51105e-026   
     length 0.992285   
     axis -9.63605e-015 90 90   XYZ
    dof rx rz
    limits (-90.0 90.0)
           (-45.0 45.0)
  end
  begin
     id 22 
     name lfingers
     direction 1 -4.48998e-011 3.01948e-026   
     length 0.800006   
     axis -1.92718e-014 90 90   XYZ
    dof rx
    limits (0.0 90.0)
  end
  begin
     id 23
     name lthumb
     direction 0.707107 -6.34881e-011 0.707107   
     length 1.14865   
     axis -90 45 -3.53137e-014   XYZ
    dof rx rz
    limits (-45.0 45.0)
           (-45.0 45.0)
  end
  begin
     id 24 
     name rclavicle
     direction -0.945672 0.324529 0.0196374   
     length 3.4236  
     axis 0 0 0   XYZ 
    dof ry rz
    limits (-10.0 20.0)
           (-20.0 0.0)
  end
  begin
     id 25 
     name rhumerus
     direction -1 -4.4896e-011 1.02757e-029  
     length 4.62052   
     axis -180 30 90   XYZ
    dof rx ry rz
    limits (-90.0 60.0)
           (-90.0 90.0)
           (-90.0 90.0)
  end
  begin
     id 26 
     name rradius
     direction -1 -4.48982e-011 3.85962e-027   
     length 2.95332   
     axis -180 30 90   XYZ
    dof rx
    limits (-10.0 170.0)
  end
  begin
     id 27 
     name rwrist
     direction -1 -4.48961e-011 7.55118e-027   
     length 1.47666   
     axis -7.18178e-015 -90 -90   XYZ
    dof ry
    limits (-180.0 0.0)
  end
  begin
     id 28
     name rhand
     direction -1 -4.48984e-011 1.50994e-026   
     length 0.990956   
     axis -9.63605e-015 -90 -90   XYZ
    dof rx rz
    limits (-90.0 90.0)
           (-45.0 45.0)
  end
  begin
     id 29
     name rfingers
     direction -1 -4.4892e-011 3.02158e-026   
     length 0.798934   
     axis -1.92718e-014 -90 -90   XYZ
    dof rx
    limits (0.0 90.0)
  end
  begin
     id 30
     name rthumb
     direction -0.707107 -6.34916e-011 0.707107   
     length 1.14711   
     axis -90 -45 3.53137e-014   XYZ
    dof rx rz
    limits (-45.0 45.0)
           (-45.0 45.0)
  end
:hierarchy
  begin
    root lhipjoint rhipjoint lowerback
    lhipjoint lfemur
    lfemur ltibia
    ltibia lfoot
    lfoot ltoes
    rhipjoint rfemur
    rfemur rtibia
    rtibia rfoot
    rfoot rtoes
    lowerback upperback
    upperback thorax
    thorax lowerneck lclavicle rclavicle
    lowerneck upperneck
    upperneck head
    lclavicle lhumerus
    lhumerus lradius
    lradius lwrist
    lwrist lhand lthumb
    lhand lfingers
    rclavicle rhumerus
    rhumerus rradius
    rradius rwrist
    rwrist rhand rthumb
    rhand rfingers
  end

#!OML:ASF H:\ManfredObstacles\Project 1\Capture day 1\Session 1\Male.ASF
:FULLY-SPECIFIED
:DEGREES
306
root 0.644891 21.9268 13.1122 -161.899 2.55096 -181.859
lowerback 6.84539 -1.64879 -5.57974
upperback 6.1432 -1.83432 -1.20109
thorax 2.70008 -0.845425 1.96814
lowerneck 3.47646 -0.237781 -7.92634
upperneck 3.06814 -0.549302 10.3036
head 0.377566 -0.262752 4.39278
rclavicle -1.39149e-014 1.03368e-014
rhumerus -33.8277 19.1189 -75.9229
rradius 46.657
rwrist 19.4251
rhand 3.83799 -5.08598
rfingers 7.12502
rthumb 29.261 -32.8045
lclavicle -1.39149e-014 1.03368e-014
lhumerus -19.7607 -14.7251 79.1836
lradius 49.5189
lwrist -8.58282
lhand -19.8944 10.1361
lfingers 7.12502
lthumb 6.44181 40.0181
rfemur -48.3516 -5.12671 19.4454
rtibia 54.6686
rfoot 5.134 -0.214293
rtoes -2.8093
lfemur -51.7131 -0.415667 -21.2916
ltibia 52.7056
lfoot 26.1549 1.01323
ltoes -18.1335
307
root 0.655607 21.8082 12.5629 -162.136 2.72631 -182.258
lowerback 7.47799 -1.48353 -5.81883
upperback 6.41457 -1.58135 -1.44868
thorax 2.6217 -0.694293 1.84673
lowerneck 4.5893 -0.28187 -7.5871
upperneck 2.38061 -0.601782 9.88733
head 0.00456457 -0.31997 4.66707
rclavicle 3.93594e-014 3.18055e-015
rhumerus -37.2141 17.342 -76.8087
rradius 44.892
rwrist 20.498
rhand 4.46618 -5.13533
rfingers 7.12502
rthumb 29.8607 -32.7477
lclavicle 3.93594e-014 3.18055e-015
lhumerus -22.8789 -14.0002 80.2255
lradius 48.3908
lwrist -8.01094
lhand -20.3991 10.6791
lfingers 7.12502
lthumb 5.95451 40.5754
rfemur -50.1616 -5.22889 19.3951
rtibia 52.9931
rfoot 4.86831 0.0339554
rtoes -2.29861
lfemur -51.7369 -1.1268 -21.0531
ltibia 48.3382
lfoot 26.2732 1.35137
ltoes -16.5456
308
root 0.670967 21.6286 11.9965 -161.864 2.5449 -181.682
lowerback 7.55192 -1.65377 -5.41371
upperback 6.8888 -1.73076 -1.03263
thorax 3.08872 -0.763704 2.05382
lowerneck 3.60149 -0.184177 -7.85027
upperneck 2.57527 -0.460543 9.61532
head 0.232107 -0.238305 4.61492
rclavicle -1.66979e-014 8.34896e-015
rhumerus -39.4824 16.4596 -77.0293
rradius 43.5239
rwrist 20.605
rhand 4.58102 -5.1046
rfingers 7.12502
rthumb 29.9703 -32.6972
lclavicle -1.66979e-014 8.34896e-015
lhumerus -25.6102 -12.1502 81.3523
lradius 47.5411
lwrist -7.49091
lhand -20.8113 11.1236
lfingers 7.12502
lthumb 5.55657 41.0308
rfemur -52.0173 -5.09927 20.4287
rtibia 50.7364
rfoot 5.20198 0.34306
rtoes -1.06625
lfemur -52.229 -1.59887 -19.7423
ltibia 43.9082
lfoot 26.6212 1.55479
ltoes -17.2469
309
root 0.696701 21.4037 11.4196 -161.758 2.7576 -182.146
lowerback 7.73775 -1.92095 -6.52259
upperback 6.965 -2.13325 -0.88388
thorax 3.168 -1.00974 2.84543
lowerneck 3.94711 0.24317 -7.84557
upperneck 2.50119 0.0962327 9.23463
head 0.0914205 0.0314213 4.46922
rclavicle 5.92378e-014 1.43125e-014
rhumerus -42.5898 16.0526 -77.5818
rradius 42.9193
rwrist 20.2538
rhand 4.81955 -5.24718
rfingers 7.12502
rthumb 30.1978 -32.7984
lclavicle 5.92378e-014 1.43125e-014
lhumerus -29.5638 -9.88947 82.2575
lradius 47.3967
lwrist -7.1214
lhand -21.0674 11.4257
lfingers 7.12502
lthumb 5.30924 41.3392
rfemur -53.5623 -5.0522 20.2768
rtibia 48.114
rfoot 6.079 0.924587
rtoes -4.9689
lfemur -52.2852 -1.94944 -19.693
ltibia 39.3292
lfoot 26.9966 2.13128
ltoes -21.4811
310
root 0.717736 21.134 10.8299 -162.332 2.75801 -182.134
lowerback 8.11294 -2.14804 -6.82393
upperback 7.37315 -2.39105 -0.744871
thorax 3.44937 -1.14316 3.17286
lowerneck 4.0603 0.546921 -7.87238
upperneck 2.51135 0.495066 9.01594
head 0.0369755 0.228169 4.38949
rclavicle 2.10712e-014 -8.74653e-015
rhumerus -45.8988 14.787 -77.8538
rradius 43.1504
rwrist 19.8562
rhand 5.22906 -5.38536
rfingers 7.12502
rthumb 30.5884 -32.8645
lclavicle 2.10712e-014 -8.74653e-015
lhumerus -33.4617 -8.07181 82.9867
lradius 47.6993
lwrist -6.92031
lhand -21.3488 11.5875
lfingers 7.12502
lthumb 5.0376 41.5076
rfemur -53.9418 -5.05753 20.5564
rtibia 45.0222
rfoot 6.87317 1.35472
rtoes -8.78522
lfemur -51.5543 -2.10329 -19.3147
ltibia 35.0403
lfoot 26.8368 3.30932
ltoes -23.3629
311
root 0.729563 20.8002 10.225 -162.17 2.49115 -181.864
lowerback 7.63265 -2.22036 -6.05596
upperback 7.5536 -2.39537 -0.819003
thorax 3.8549 -1.12002 2.64902
lowerneck 4.25281 0.548152 -7.86274
upperneck 2.13259 0.517288 9.72307
head -0.126578 0.237813 4.64505
rclavicle 1.94809e-014 -2.78299e-014
rhumerus -49.6092 11.9745 -77.9626
rradius 43.7986
rwrist 19.7145
rhand 5.26827 -5.40931
rfingers 7.12502
rthumb 30.6258 -32.8814
lclavicle 1.94809e-014 -2.78299e-014
lhumerus -37.1635 -7.39803 83.5197
lradius 48.0143
lwrist -6.61539
lhand -21.5329 11.8465
lfingers 7.12502
lthumb 4.85983 41.7708
rfemur -54.9602 -5.10025 21.1079
rtibia 41.8493
rfoot 7.91782 1.02938
rtoes -7.6226
lfemur -51.7459 -2.30657 -18.6766
ltibia 31.0629
lfoot 26.5224 4.54085
ltoes -22.6039
312
root 0.755754 20.4276 9.60796 -162.556 2.18984 -181.828
lowerback 7.21342 -2.37027 -5.79825
upperback 7.87697 -2.50246 -0.836099
thorax 4.42687 -1.16537 2.47037
lowerneck 4.34829 0.508693 -7.6715
upperneck 2.21021 0.468873 9.68396
head -0.112723 0.215785 4.59231
rclavicle 1.35174e-014 -4.53229e-014
rhumerus -53.0073 9.37082 -77.7657
rradius 44.2803
rwrist 19.3771
rhand 5.08915 -5.52649
rfingers 7.12502
rthumb 30.455 -33.0304
lclavicle 1.35174e-014 -4.53229e-014
lhumerus -40.787 -6.31188 83.9296
lradius 48.1194
lwrist -6.30782
lhand -21.8398 12.0221
lfingers 7.12502
lthumb 4.56349 41.9529
rfemur -55.2356 -5.18521 21.3098
rtibia 38.7223
rfoot 8.97814 0.548097
rtoes -8.95865
lfemur -51.48 -2.31993 -18.5243
ltibia 27.7434
lfoot 26.0364 4.93537
ltoes -23.1643
